# xmcd
#
# Track frame offsets:
#	150
#	15285
#	25473
#	37538
#	52292
#	70969
#
# Disc length: 1135 seconds
#
# Revision: 1
# Processed by: cddbd v1.5.2PL0 Copyright (c) Steve Scherf et al.
# Submitted via: audiograbber 1.83.01
#
DISCID=44046d06
DTITLE=Nick Nicholson - Let It Ride
DYEAR=1900
DGENRE=Country
TTITLE0=Two Story House
TTITLE1=How Can I Get Over You
TTITLE2=Roped That Horse Before
TTITLE3=Lonesome State Of Mine
TTITLE4=Your Love Turns My Life On Again
TTITLE5=What I Wouldn't Give
EXTD=JAYCO Promotions
EXTT0=
EXTT1=
EXTT2=
EXTT3=
EXTT4=
EXTT5=
PLAYORDER=
